<svg xmlns="http://www.w3.org/2000/svg" viewBox="0 0 900 200">
  <defs>
    <linearGradient id="bg" x1="0%" y1="0%" x2="100%" y2="100%">
      <stop offset="0%" style="stop-color:#0D9488"/>
      <stop offset="100%" style="stop-color:#064E3B"/>
    </linearGradient>
  </defs>
  <rect width="900" height="200" rx="12" fill="url(#bg)"/>
  <!-- Subtle grid -->
  <g stroke="white" stroke-width="0.5" opacity="0.04">
    <line x1="0" y1="40" x2="900" y2="40"/><line x1="0" y1="80" x2="900" y2="80"/>
    <line x1="0" y1="120" x2="900" y2="120"/><line x1="0" y1="160" x2="900" y2="160"/>
    <line x1="150" y1="0" x2="150" y2="200"/><line x1="300" y1="0" x2="300" y2="200"/>
    <line x1="450" y1="0" x2="450" y2="200"/><line x1="600" y1="0" x2="600" y2="200"/>
    <line x1="750" y1="0" x2="750" y2="200"/>
  </g>
  <!-- Upgrade arrow icon -->
  <g transform="translate(100, 100)" fill="none" stroke="white" stroke-width="2.5" opacity="0.9">
    <!-- Box base -->
    <rect x="-22" y="-5" width="44" height="30" rx="3" fill="white" fill-opacity="0.15"/>
    <rect x="-22" y="-5" width="44" height="30" rx="3"/>
    <!-- Arrow up -->
    <line x1="0" y1="15" x2="0" y2="-30" stroke-linecap="round"/>
    <polyline points="-10,-20 0,-30 10,-20" stroke-linecap="round" stroke-linejoin="round"/>
    <!-- Small server lines -->
    <line x1="-12" y1="5" x2="12" y2="5" opacity="0.5"/>
    <line x1="-12" y1="13" x2="12" y2="13" opacity="0.5"/>
  </g>
  <!-- Title -->
  <text x="450" y="85" text-anchor="middle" fill="white" font-family="'Segoe UI', 'Helvetica Neue', Arial, sans-serif" font-size="48" font-weight="bold">homebrew-mcp-upgrade</text>
  <!-- Subtitle -->
  <text x="450" y="115" text-anchor="middle" fill="white" font-family="'Segoe UI', 'Helvetica Neue', Arial, sans-serif" font-size="17" opacity="0.8">Homebrew tap for mcp-upgrade</text>
  <!-- Decorative dots right -->
  <g fill="white" opacity="0.1">
    <circle cx="810" cy="40" r="3"/><circle cx="830" cy="40" r="3"/><circle cx="850" cy="40" r="3"/>
    <circle cx="810" cy="60" r="3"/><circle cx="830" cy="60" r="3"/><circle cx="850" cy="60" r="3"/>
    <circle cx="810" cy="80" r="3"/><circle cx="830" cy="80" r="3"/><circle cx="850" cy="80" r="3"/>
    <circle cx="810" cy="140" r="3"/><circle cx="830" cy="140" r="3"/><circle cx="850" cy="140" r="3"/>
    <circle cx="810" cy="160" r="3"/><circle cx="830" cy="160" r="3"/><circle cx="850" cy="160" r="3"/>
  </g>
</svg>
